<svg xmlns="http://www.w3.org/2000/svg" xmlns:xlink="http://www.w3.org/1999/xlink" width="40" height="40" viewBox="0 0 40 40">
    <defs>
        <filter id="v00wcav40a" width="170%" height="170%" x="-30%" y="-25%" filterUnits="objectBoundingBox">
            <feOffset dx="2" dy="4" in="SourceAlpha" result="shadowOffsetOuter1"/>
            <feGaussianBlur in="shadowOffsetOuter1" result="shadowBlurOuter1" stdDeviation="4"/>
            <feComposite in="shadowBlurOuter1" in2="SourceAlpha" operator="out" result="shadowBlurOuter1"/>
            <feColorMatrix in="shadowBlurOuter1" values="0 0 0 0 0 0 0 0 0 0 0 0 0 0 0 0 0 0 0.2 0"/>
        </filter>
        <circle id="cvx4dfavrb" cx="20" cy="20" r="20"/>
    </defs>
    <g fill="none" fill-rule="evenodd">
        <g>
            <g>
                <g>
                    <g>
                        <g transform="translate(-584.000000, -6084.000000) translate(0.000000, 5230.000000) translate(0.000000, 610.000000) translate(266.000000, 172.000000) translate(318.000000, 72.000000)">
                            <use fill="#000" filter="url(#v00wcav40a)" xlink:href="#cvx4dfavrb"/>
                            <use fill="#FFF" fill-opacity=".15" xlink:href="#cvx4dfavrb"/>
                        </g>
                        <g stroke="#FFF">
                            <path d="M0 3.03v12.222L8.25 18c.962-1.23 1.442-2.214 1.442-2.954 0-.74-.48-1.807-1.442-3.2.846-1.069 1.27-1.997 1.27-2.786 0-.788-.382-2.219-1.045-3.475" transform="translate(-584.000000, -6084.000000) translate(0.000000, 5230.000000) translate(0.000000, 610.000000) translate(266.000000, 172.000000) translate(318.000000, 72.000000) translate(11.000000, 11.000000)"/>
                            <path d="M9.034 0L15.969 2.529 8.308 5.585 1.05 3.004zM16.826 2.69c.61 1.262.915 2.347.915 3.254 0 .908-.462 1.794-1.387 2.66 1.056 1.163 1.604 2.177 1.643 3.04.04.864-.35 1.753-1.17 2.668L8.306 18" transform="translate(-584.000000, -6084.000000) translate(0.000000, 5230.000000) translate(0.000000, 610.000000) translate(266.000000, 172.000000) translate(318.000000, 72.000000) translate(11.000000, 11.000000)"/>
                        </g>
                    </g>
                </g>
            </g>
        </g>
    </g>
</svg>
