<svg xmlns="http://www.w3.org/2000/svg" xmlns:xlink="http://www.w3.org/1999/xlink" width="40" height="40" viewBox="0 0 40 40">
    <defs>
        <filter id="t8suoajffa" width="170%" height="170%" x="-30%" y="-25%" filterUnits="objectBoundingBox">
            <feOffset dx="2" dy="4" in="SourceAlpha" result="shadowOffsetOuter1"/>
            <feGaussianBlur in="shadowOffsetOuter1" result="shadowBlurOuter1" stdDeviation="4"/>
            <feComposite in="shadowBlurOuter1" in2="SourceAlpha" operator="out" result="shadowBlurOuter1"/>
            <feColorMatrix in="shadowBlurOuter1" values="0 0 0 0 0 0 0 0 0 0 0 0 0 0 0 0 0 0 0.2 0"/>
        </filter>
        <circle id="c5h7l5fx5b" cx="20" cy="20" r="20"/>
    </defs>
    <g fill="none" fill-rule="evenodd">
        <g>
            <g>
                <g>
                    <g>
                        <g>
                            <g transform="translate(-266.000000, -6084.000000) translate(0.000000, 5230.000000) translate(0.000000, 610.000000) translate(266.000000, 172.000000) translate(0.000000, 72.000000)">
                                <use fill="#000" filter="url(#t8suoajffa)" xlink:href="#c5h7l5fx5b"/>
                                <use fill="#FFF" fill-opacity=".15" xlink:href="#c5h7l5fx5b"/>
                            </g>
                            <g fill="#FFF" fill-rule="nonzero" stroke="#FFF" stroke-width=".3">
                                <path d="M16.5 0h-15C.673 0 0 .698 0 1.556v10.888C0 13.302.673 14 1.5 14h15c.827 0 1.5-.698 1.5-1.556V1.556C18 .698 17.327 0 16.5 0zM1.461.808H16.54c.056 0 .105.02.157.032-1.306 1.233-5.634 5.318-7.149 6.726-.118.11-.31.242-.547.242-.237 0-.428-.132-.547-.242C6.938 6.158 2.61 2.073 1.304.84c.053-.011.102-.032.157-.032zM.783 12.45V1.561c0-.076.022-.145.042-.215.995.944 4.006 3.794 5.958 5.632-1.946 1.73-4.957 4.685-5.96 5.676-.018-.066-.04-.131-.04-.203zm15.743.741H1.474c-.06 0-.114-.021-.17-.035 1.04-1.01 4.074-3.947 5.989-5.619l.657.608c.31.286.673.436 1.05.436s.74-.15 1.05-.436c.18-.165.408-.376.657-.608 1.915 1.672 4.95 4.608 5.989 5.62-.056.013-.11.034-.17.034zm.691-.74c0 .071-.022.136-.04.202-1.003-.991-4.014-3.946-5.96-5.676C13.17 5.14 16.18 2.29 17.175 1.346c.02.07.042.139.042.215v10.89h0z" transform="translate(-266.000000, -6084.000000) translate(0.000000, 5230.000000) translate(0.000000, 610.000000) translate(266.000000, 172.000000) translate(0.000000, 72.000000) translate(11.000000, 13.000000)"/>
                            </g>
                        </g>
                    </g>
                </g>
            </g>
        </g>
    </g>
</svg>
