<svg xmlns="http://www.w3.org/2000/svg" width="28" height="28" viewBox="0 0 28 28">
    <g fill="none" fill-rule="evenodd">
        <g>
            <g>
                <g>
                    <path d="M0 0H40V40H0z" transform="translate(-390.000000, -7871.000000) translate(374.000000, 7855.000000) translate(10.000000, 10.000000)"/>
                    <g fill="#0B1215" fill-rule="nonzero">
                        <path d="M11.429 0C5.127 0 0 5.127 0 11.429c0 6.301 5.127 11.428 11.429 11.428 6.301 0 11.428-5.127 11.428-11.428C22.857 5.127 17.73 0 11.43 0zm0 20.747c-5.139 0-9.32-4.18-9.32-9.318 0-5.139 4.181-9.32 9.32-9.32 5.138 0 9.318 4.181 9.318 9.32 0 5.138-4.18 9.318-9.318 9.318z" transform="translate(-390.000000, -7871.000000) translate(374.000000, 7855.000000) translate(10.000000, 10.000000) translate(6.666667, 6.666667)"/>
                        <path d="M26.33 24.705l-6.59-6.59c-.45-.45-1.176-.45-1.625 0-.45.448-.45 1.176 0 1.625l6.59 6.59c.224.224.518.337.812.337.294 0 .588-.113.813-.337.449-.449.449-1.177 0-1.625z" transform="translate(-390.000000, -7871.000000) translate(374.000000, 7855.000000) translate(10.000000, 10.000000) translate(6.666667, 6.666667)"/>
                    </g>
                </g>
            </g>
        </g>
    </g>
</svg>
