<svg xmlns="http://www.w3.org/2000/svg" xmlns:xlink="http://www.w3.org/1999/xlink" width="40" height="40" viewBox="0 0 40 40">
    <defs>
        <filter id="tb4udkw52a" width="170%" height="170%" x="-30%" y="-25%" filterUnits="objectBoundingBox">
            <feOffset dx="2" dy="4" in="SourceAlpha" result="shadowOffsetOuter1"/>
            <feGaussianBlur in="shadowOffsetOuter1" result="shadowBlurOuter1" stdDeviation="4"/>
            <feComposite in="shadowBlurOuter1" in2="SourceAlpha" operator="out" result="shadowBlurOuter1"/>
            <feColorMatrix in="shadowBlurOuter1" values="0 0 0 0 0 0 0 0 0 0 0 0 0 0 0 0 0 0 0.2 0"/>
        </filter>
        <path id="idfo9udmyb" d="M20 40c11.04 0 20-8.96 20-20S31.04 0 20 0 0 8.96 0 20s8.96 20 20 20z"/>
    </defs>
    <g fill="none" fill-rule="evenodd">
        <g fill-rule="nonzero">
            <g>
                <g>
                    <g>
                        <g transform="translate(-336.000000, -728.000000) translate(120.000000, 728.000000) translate(216.000000, 0.000000)">
                            <use fill="#000" filter="url(#tb4udkw52a)" xlink:href="#idfo9udmyb"/>
                            <use fill="#FFF" fill-opacity=".15" xlink:href="#idfo9udmyb"/>
                        </g>
                        <g fill="#FFF">
                            <path d="M3.494 14.371c-.21.059-.484.151-.64.151-1.016 0-1.21-1.64-.118-1.89 4.402-1.047 8.9-1.955 12.736.519.915.63.526 1.848-.295 1.848-.896.001-3.727-2.386-11.683-.628zM16.212 9.752C12.69 7.566 7.44 7.685 2.768 9.014c-.27.077-.417.154-.67.154C.85 9.168.52 7.201 1.878 6.8c5.492-1.618 11.384-1.674 15.485.884.457.284.637.651.637 1.164-.006.638-.479 1.153-1.092 1.153-.132-.037-.093.084-.696-.248zM19.263 2.553C20.539 3.246 20.037 5 18.68 5c-.296-.001-.477-.07-.732-.21C13.92 2.525 6.713 1.98 2.05 3.209c-.205.053-.46.137-.732.137C.571 3.345 0 2.795 0 2.087 0 1.362.476.952.985.813c5.291-1.46 13.299-.998 18.278 1.74z" transform="translate(-336.000000, -728.000000) translate(120.000000, 728.000000) translate(216.000000, 0.000000) translate(10.000000, 13.000000)"/>
                        </g>
                    </g>
                </g>
            </g>
        </g>
    </g>
</svg>
