<svg xmlns="http://www.w3.org/2000/svg" width="50" height="50" viewBox="0 0 50 50">
    <defs>
        <filter id="1p2sk5toza" width="153.9%" height="148%" x="-26.8%" y="-24%" filterUnits="objectBoundingBox">
            <feOffset dy="2" in="SourceAlpha" result="shadowOffsetOuter1"/>
            <feGaussianBlur in="shadowOffsetOuter1" result="shadowBlurOuter1" stdDeviation="2"/>
            <feColorMatrix in="shadowBlurOuter1" result="shadowMatrixOuter1" values="0 0 0 0 0 0 0 0 0 0 0 0 0 0 0 0 0 0 0.15 0"/>
            <feMerge>
                <feMergeNode in="shadowMatrixOuter1"/>
                <feMergeNode in="SourceGraphic"/>
            </feMerge>
        </filter>
    </defs>
    <g fill="none" fill-rule="evenodd">
        <g>
            <g>
                <g>
                    <g filter="url(#1p2sk5toza)" transform="translate(-120.000000, -1008.000000) translate(0.000000, 859.000000) translate(0.000000, 139.000000) translate(120.000000, 10.000000) translate(3.000000, 0.000000)">
                        <path fill="#FFF" fill-rule="nonzero" d="M14.5 45.214c-.04 0-.08-.01-.114-.031l-2.662-1.57c-.062-.036-.103-.1-.11-.172l-.293-3.069-1.621-.886-.414 2.414c-.011.073-.06.136-.127.166-.065.032-.142.032-.207 0L6.81 40.834c-.082-.046-.127-.14-.11-.234l2.759-15.917c.012-.074.06-.137.127-.17.065-.034.142-.034.207 0l2.376 1.397c.06.035.101.096.11.166l2.438 18.869c.008.064-.012.129-.055.178-.042.048-.104.076-.169.077l.007.014zm-2.431-1.931l2.159 1.276-2.376-18.3-1.997-1.176L7.18 40.524l1.724.99.414-2.414c.012-.072.058-.134.124-.166.065-.032.142-.032.207 0l2 1.094c.066.035.11.1.118.175l.303 3.08zM11.631 37c-.038 0-.076-.01-.11-.028l-1.504-.838c-.083-.045-.128-.137-.114-.23l.838-5.56c.023-.109.12-.188.231-.189.113.001.207.088.218.2l.665 6.383c.01.083-.03.165-.1.21-.035.03-.078.047-.124.052zm-1.259-1.183l1.007.549-.455-4.19-.552 3.641zM22.414 49.907c-.041 0-.082-.011-.117-.031l-2.31-1.414c-.053-.031-.09-.082-.104-.141L17.734 39.2v7.624c-.001.08-.044.155-.113.197-.072.041-.16.041-.231 0l-2.256-1.38c-.068-.04-.11-.113-.11-.193V27.962c.002-.08.045-.155.114-.196.07-.04.155-.04.224 0l2.376 1.324c.056.032.096.085.11.148l1.924 8.8v-7.362c0-.08.042-.153.11-.193.071-.04.158-.04.228 0l2.445 1.38c.07.04.114.115.114.196v17.62c-.002.081-.045.155-.114.197-.043.023-.092.034-.141.03zm-2.114-1.78l1.89 1.152V32.193l-1.993-1.127v9.079c-.004.113-.09.207-.204.22-.113.011-.217-.062-.245-.172l-2.334-10.759-1.952-1.086V45.31l1.807 1.11.017-9.148c-.008-.12.079-.224.198-.238.119-.014.228.068.247.187L20.3 48.128z"/>
                        <path d="M25.983 29.841L28.879 36.045 28.824 28.159 32.521 26.086 32.521 43.903 28.876 46.117 26.397 38.407 26.397 47.583 22.414 49.683 22.414 32.041z"/>
                        <path fill="#FFF" fill-rule="nonzero" d="M22.414 49.907c-.06 0-.117-.024-.159-.066-.042-.042-.065-.099-.065-.158V32.045c0-.079.04-.152.107-.193l3.565-2.197c.054-.035.121-.043.183-.024.062.018.114.062.141.12l2.459 5.266-.045-6.855c0-.081.043-.156.114-.196l3.696-2.07c.071-.045.161-.047.234-.005.072.042.115.122.111.206v17.817c0 .078-.04.151-.107.193l-3.645 2.21c-.058.038-.131.045-.196.02-.064-.024-.113-.076-.135-.14l-2.051-6.352v7.741c0 .083-.046.16-.121.197l-3.98 2.103c-.033.016-.07.023-.106.02zm.227-17.738V49.31l3.528-1.862v-9.041c0-.111.08-.206.19-.224.11-.016.216.05.251.155l2.393 7.434 3.29-1.979v-17.32l-3.241 1.803.051 7.752c.003.107-.07.2-.175.224-.103.024-.209-.028-.252-.124l-2.793-5.973-3.242 2.014z"/>
                        <path fill="#FFF" fill-rule="nonzero" d="M28.772 28.383c-.04 0-.079-.011-.113-.031l-2.38-1.38c-.071-.039-.116-.114-.116-.196s.045-.157.116-.197L30 24.59c.067-.034.147-.034.214 0l2.414 1.297c.108.06.148.198.09.307-.06.108-.196.149-.304.09l-2.317-1.238-3.238 1.724 2.027 1.186c.091.05.136.155.109.255-.027.1-.12.169-.223.166v.007z"/>
                        <path fill="#FFF" fill-rule="nonzero" d="M26.393 30.952c-.124 0-.224-.1-.224-.224v-3.959c.014-.114.11-.2.226-.2.115 0 .212.086.226.2v3.959c0 .06-.024.117-.067.16-.043.041-.1.065-.16.064zM37.586 41.224c-.036 0-.071-.008-.103-.024-.074-.038-.12-.114-.12-.197l-.087-8.658-3.973-6.828c-.03-.051-.04-.113-.025-.172.015-.058.053-.108.105-.138.109-.06.246-.024.31.083l4.01 6.896c.021.033.032.072.031.11l.083 8.297 3.907-2.662v-7.972c-.002-.018-.002-.035 0-.052l2.455-10.548-3.207 1.751-1.069 7.135c-.017.097-.093.172-.19.19-.097.014-.193-.036-.237-.125l-2.39-4.862c-.036-.072-.03-.157.014-.224.045-.067.122-.106.202-.1.08.005.152.052.188.124l2.069 4.218.979-6.532c.012-.069.055-.129.117-.162l3.745-2.048c.078-.042.173-.035.245.017.07.054.103.145.083.231L42.169 30v8.066c0 .074-.038.144-.1.186L37.721 41.2c-.041.023-.089.031-.135.024z"/>
                        <path fill="#FFF" fill-rule="nonzero" d="M22.376 32.29c-.04 0-.077-.011-.11-.031l-2.445-1.38c-.07-.039-.115-.112-.118-.193 0-.081.043-.157.114-.196l3.793-2.235c.072-.043.163-.043.235 0l2.255 1.4c.072.04.116.118.114.2-.001.083-.048.158-.122.195-.074.038-.162.032-.23-.016l-2.148-1.327-3.331 1.983 2.103 1.193c.088.051.131.155.106.254-.026.098-.114.168-.216.17v-.017zM17.614 29.514c-.082 0-.158-.045-.197-.117-.03-.053-.037-.114-.02-.172.015-.058.054-.106.106-.135l1.925-1.066-1.938-1.127-2.142 1.224c-.051.03-.113.038-.17.022-.058-.015-.107-.053-.137-.105-.03-.052-.038-.113-.022-.17.015-.058.053-.107.105-.137l2.252-1.29c.07-.041.157-.041.227 0l2.414 1.38c.072.039.117.114.117.196s-.045.157-.117.197l-2.293 1.272c-.034.018-.072.027-.11.028zM12.069 26.31c-.082 0-.158-.044-.197-.117-.029-.052-.036-.114-.02-.172.018-.058.057-.106.11-.135l1.917-1.058-1.941-1.125L9.8 24.928c-.053.03-.115.037-.173.02-.058-.015-.108-.054-.137-.107-.03-.052-.038-.113-.021-.171.016-.058.054-.106.107-.136l2.252-1.29c.07-.037.154-.037.224 0l2.414 1.38c.068.042.11.116.11.197 0 .082-.045.158-.117.196l-2.287 1.266c-.032.016-.067.026-.103.027z"/>
                        <path fill="#FFF" fill-rule="nonzero" d="M20.397 30.645c-.106 0-.197-.073-.221-.176l-.52-2.338c-.027-.122.05-.241.172-.269.058-.014.12-.004.171.029.05.032.086.084.098.143l.51 2.338c.013.059.002.12-.03.171-.032.05-.084.086-.143.098l-.037.004zM15.238 31.834c-.113 0-.209-.084-.224-.196l-.9-6.793c-.009-.06.006-.12.043-.168.036-.048.09-.08.15-.087.124-.015.237.072.255.196l.9 6.79c.016.123-.07.237-.193.255l-.031.003zM17.614 46.959c-.105.002-.198-.068-.223-.17-.026-.101.022-.207.116-.255l1.893-1.017c.053-.028.114-.034.171-.016.057.017.105.057.132.11.059.11.017.247-.093.306l-1.89 1.004c-.031.02-.068.034-.106.038zM3.507 38.359c-.463-.015-.913-.157-1.3-.41l-2.093-1.17c-.07-.041-.112-.116-.114-.196V19.117c.002-.08.045-.155.114-.196.07-.04.157-.04.227 0 .145.086 3.525 2.127 4.197 2.579.812.46 1.448 1.177 1.807 2.038.448 1.103.527 1.876.527 3.496v7.956c0 .544 0 1.82-1.613 2.786-.521.348-1.126.55-1.752.583zm-3.055-1.91l1.962 1.103c.321.213.697.333 1.083.345.544-.033 1.069-.212 1.52-.518 1.38-.83 1.38-1.89 1.38-2.413v-7.928c0-1.697-.097-2.348-.494-3.324-.326-.778-.904-1.424-1.64-1.835-.515-.362-2.911-1.817-3.811-2.362v16.931z"/>
                        <path fill="#FFF" fill-rule="nonzero" d="M3.448 35.886c-.727 0-1.351-.665-1.379-.69-.038-.041-.058-.095-.059-.151V23.39c0-.083.045-.158.118-.197.07-.043.157-.043.227 0 .695.423 1.366.883 2.01 1.38.345.344.476.848.476 1.665v7.769c.083.682-.232 1.352-.81 1.724-.176.104-.378.158-.583.155zm-.986-.941c.263.271.611.444.986.49.122-.002.24-.035.345-.097.437-.29.667-.806.59-1.324v-7.776c0-.869-.176-1.172-.345-1.352-.506-.393-1.033-.758-1.58-1.093l.004 11.152zM8.848 29.514c-.06 0-.119-.023-.162-.066-.043-.043-.066-.101-.065-.162v-3.893c.086-2.707-.907-3.755-1.5-4.383-.466-.493-3.404-2.241-4.642-2.955L.345 19.31c-.109.063-.248.026-.31-.082-.063-.107-.028-.244.079-.307l2.248-1.335c.07-.041.157-.041.228 0 .172.1 4.234 2.442 4.858 3.104.624.662 1.724 1.813 1.624 4.7v3.896c.001.06-.022.118-.064.16-.042.044-.1.068-.16.068zM5.862 37.331c-.105 0-.196-.073-.217-.176-.014-.058-.003-.119.028-.17.032-.05.083-.086.14-.099.74-.22 1.375-.699 1.79-1.348.068-.105.208-.135.313-.067.104.067.134.207.067.312-.477.751-1.213 1.301-2.07 1.545l-.05.003zM9.041 42.069c-.081.001-.157-.043-.196-.114-.03-.051-.038-.113-.023-.17.016-.058.054-.107.106-.137l2.524-1.427c.108-.061.246-.023.307.086.06.108.022.246-.087.307l-2.52 1.455c-.036.01-.074.01-.11 0zM28.876 46.341c-.04 0-.077-.01-.11-.03l-2.483-1.421c-.052-.03-.09-.079-.105-.137-.016-.057-.008-.119.022-.17.029-.053.078-.091.135-.107.058-.017.12-.01.172.02l2.483 1.425c.09.05.135.155.108.255-.027.1-.119.168-.222.165zM33.541 25.645c-.04 0-.079-.011-.113-.031l-2.38-1.38c-.07-.041-.112-.117-.112-.198s.043-.156.112-.198l3.704-1.98c.066-.034.144-.034.21 0l2.414 1.297c.11.06.152.197.093.307-.028.053-.076.092-.132.11-.057.017-.119.011-.171-.017l-2.321-1.241-3.238 1.724 2.03 1.186c.053.03.09.079.106.137.015.058.005.12-.026.17-.036.065-.102.107-.176.114z"/>
                        <path fill="#FFF" fill-rule="nonzero" d="M33.541 25.645c-.082-.001-.158-.046-.2-.117-.059-.11-.019-.247.09-.307l3.748-2.07c.07-.038.156-.036.225.005.069.041.11.116.108.196-.001.08-.045.154-.115.193l-3.749 2.069c-.032.02-.069.03-.107.03zM40.762 21.193c-.04 0-.08-.01-.114-.03l-2.376-1.38c-.071-.04-.116-.115-.116-.197s.045-.157.116-.196l3.7-1.983c.068-.034.147-.034.214 0l2.414 1.296c.109.061.149.198.09.307-.028.053-.076.092-.133.11-.057.017-.118.011-.17-.017l-2.318-1.24-3.238 1.723 2.028 1.186c.052.03.09.08.104.137.015.058.006.12-.025.17-.036.065-.102.108-.176.114z"/>
                        <path fill="#FFF" fill-rule="nonzero" d="M37.672 24.352h-.038c-.121-.02-.204-.134-.186-.255l.714-4.552c.02-.123.134-.207.257-.188.123.019.207.134.188.257l-.714 4.552c-.018.107-.112.186-.22.186zM32.09 26.08c-.086 0-.165-.048-.204-.125l-.924-1.817c-.028-.053-.034-.116-.015-.173.019-.058.06-.105.115-.13.053-.028.116-.033.173-.014.057.019.104.06.13.113l.925 1.825c.055.111.01.246-.1.303-.032.014-.066.02-.1.017zM35.752 33.041c-.084 0-.16-.046-.2-.12l-3.173-6.049c-.028-.052-.034-.114-.016-.17.017-.058.057-.105.11-.133.11-.059.247-.017.306.093l3.173 6.048c.027.053.033.115.015.172-.018.057-.059.105-.112.132-.032.017-.067.027-.103.027z"/>
                        <path fill="#FFF" fill-rule="nonzero" d="M35.752 40.172c-.126 0-.228-.101-.228-.227v-7.131c.002-.125.103-.224.228-.224.124 0 .224.1.224.224v7.13c0 .06-.022.119-.065.162-.042.042-.1.066-.16.066z"/>
                        <path fill="#FFF" fill-rule="nonzero" d="M37.545 41.224c-.04 0-.08-.011-.114-.03l-1.793-1.035c-.108-.063-.145-.202-.083-.31.064-.108.203-.143.31-.08l1.797 1.034c.107.065.143.203.08.31-.042.07-.117.112-.197.111z"/>
                        <path d="M37.286 23.345L39.676 28.21 40.762 20.966 44.51 18.917 41.941 29.959 41.941 38.052 37.593 41 37.507 32.283 33.497 25.393"/>
                        <path fill="#FFF" fill-rule="nonzero" d="M37.586 41.131c-.019.005-.04.005-.058 0-.044-.023-.072-.068-.073-.117l-.086-8.683-3.986-6.872c-.037-.063-.017-.144.046-.181.063-.038.144-.017.181.046l4.014 6.897c.005.021.005.044 0 .065l.083 8.473L41.793 38v-8.041c-.002-.01-.002-.019 0-.028l2.5-10.755-3.43 1.876-1.077 7.179c-.008.057-.053.102-.11.11-.058.01-.115-.02-.142-.072l-2.386-4.866c-.032-.065-.006-.145.059-.179.067-.032.147-.004.18.062l2.2 4.483 1.034-6.824c.006-.04.03-.076.065-.097l3.748-2.045c.044-.029.101-.029.145 0 .042.031.061.084.049.135l-2.562 11.034v8.076c-.001.044-.023.085-.06.11l-4.347 2.949c-.022.015-.047.023-.073.024z"/>
                        <path fill="#FFF" fill-rule="nonzero" d="M33.541 25.552c-.06 0-.114-.042-.13-.1-.015-.06.012-.122.065-.152l3.748-2.069c.063-.025.135.001.168.06.032.06.015.135-.04.175l-3.749 2.068c-.018.011-.04.017-.062.018z"/>
                        <path d="M28.893 17.052c.797-.662.666-1.58 1.135-2.349.357-.519.83-.95 1.379-1.258l-.083-1.293c-1.1-.57-1.18-2.3-1.18-2.3.228.424.38 1.23 1.118 1.569.43.193.784.523 1.007.938.23-.194.414-.435.541-.707.1-.315.178-.637.235-.962-.533-.285-1.007-.666-1.4-1.124-.535-.69-1.1-2.314-1.424-3.41-.324-1.097-1.759-2.38-1.759-2.38-.117.469 0 .396.197 1.155.196.759.744 2.5.744 2.5s-.027.155-.196-.534c-.17-.69-1.11-1.704-1.235-2.29-.124-.586-.313-2.883-.775-3.397-.463-.513-1.27.035-2.07 1.11-.796 1.297-2.027 2.277-2.903 2.366-.584.025-1.114.348-1.403.855-.304.393-1.655 2.759-2.273 3.273-.617.514-1.241 1.755-1.8 2.648-.152.299-.431.512-.76.579-.328.067-.669-.02-.926-.234-.239-.183-.527-.29-.828-.307l.938 1.772s-1.769-1.634-2.413-2.648c-.645-1.014-.818-.755-1.725-.345-.906.41-2.09 1.693-3.044 3.235-.956 1.541-2.704 1.793-3.018 1.972-.11.063-.21.142-.296.235l-.197.248 1.131.631c.362 0 1.431-.576 1.752-1.1.32-.524.69-1.303 1.183-1.52.493-.218 1.586-1.725 2.1-2.225s.648-.296.472.142c-.176.437-.717 1.434-.717 1.434.041.245 1.793-.345 1.793-.345s-1.08 1.417-1.534 2.104c-.456.686-.766.648-1.318 1.034-.322.27-.45.706-.324 1.107l-.941.824.81.483s.77-.607.99-.814c.196-.264.306-.582.314-.91.065-.345 1.058-.583 1.644-.845.587-.262.69-.345.638.055-.051.4-.817 1.01-.817 1.01l.345.042s-1.462 1.569-1.262 1.569h.062c.376-.124 1.928-1.035 2.572-2.207.69-1.255 1.38-1.1 1.866-1.566.486-.465.62-1.355.662-1.644.041-.29.6-.314 1.19-1.062.59-.749 1.434-2.235 1.848-2.673.414-.438 1.252-1.848 1.88-2.724.627-.876 2.292-1.414 2.779-1.635.486-.22 1.09-.955 1.482-1.648.298-.482.669-.915 1.1-1.283.148.445.216.912.2 1.38 0 .941-.124.976-.651 1.827-.363.633-.64 1.31-.828 2.014.183-.545 1.448-1.29 1.724-1.483.276-.193.473-1.458.473-1.458.217.504.253 1.069.1 1.596-.249.914-.131 1.697-.425 2.47-.293.772-2.11 1.685-2.11 1.685s.955-.968 1.424-1.517c.47-.548.245-1.507.245-1.507-.41.586-.885 1.123-1.417 1.6-.59.438-.424.524-.748 1.238-.208.449-.458.876-.749 1.276.428.029.854-.078 1.217-.307.381-.237.867-.22 1.232.042-.456-.052-.797.662-1.149 1.103-.351.441-.13 1.007-.262 1.586-.074.485-.337.922-.73 1.214-.47.417-1.408 1.448-1.408 1.448s.666-.344 1.145-.562c.48-.217 1.231-.765 1.445-1.29.214-.524.293-1.217.665-1.951.373-.735.98-.938 1.325-.52.344.416 1.751-1.246 1.751-1.246-.069.88-.81 1.942-1.303 2.07-.493.127-.29.3-.69.927-.4.628-.838 1.21-.948 1.724-.11.514-1.086 1.441-1.88 1.862-.793.42-1.84 1.297-1.49 1.245.353-.052.57.02.956-.055.386-.076.535-.324 1.724-.793.766-.333 1.425-.871 1.904-1.555-.193 1.182-.79 1.648-1.166 1.865-.376.217-.507.372-.927.631-.421.259-.466.248-.504.628-.038.379.038.727-.276.941-.314.214-1.91 1.886-1.91 1.886l1.61-.717c.72-.346 1.308-.914 1.68-1.62.41-.718 1.21-1.335 1.679-1.78.469-.445.99-.386 1.786-1.048z"/>
                        <path fill="#FFF" fill-rule="nonzero" d="M42.2 14.807c-.293-.373-.62-.673-1.652-.728-1.03-.055-1.63.242-1.879-.651-.248-.894-1.114-2.049-1.6-2.676-.486-.628-1.152-1.176-2.035-.983-.522.111-1.038.253-1.544.424 0 0-1.48-.627-1.924-2.069-.445-1.441-1.528-3.872-2.366-4.596-.838-.725-.897-.562-.924-1.19-.028-.628-.51-2.11-1.455-1.993-.945.117-1.587.8-2.338 1.796-.752.997-.99 1.549-1.676 1.652-.686.104-1.893.448-2.483 1.345-.59.896-1.724 2.79-2.303 3.293-.58.503-1.252 1.914-1.562 2.341-.31.428-.597.87-.942.528-.345-.341-.996-.759-1.624-.528-.43-.69-1.014-1.434-1.314-1.49-.977-.13-1.96.194-2.669.88-1.113 1.035-2.169 2.962-2.934 3.555-.69.542-2.335.907-3.038 1.82l-.02.029c-.059.077-.11.159-.156.244-.152.31-.176.597 0 .735.217.176 1.493.848 1.493.848s5.548 3.066 7.004 3.907c1.455.841 6.434 3.907 8.007 4.462 1.572.555 2.906.728 4.93-.345 2.025-1.072 17.052-9.265 17.307-9.52.256-.256-.006-.725-.303-1.09zm-28.872 4.196c-.49.325-.849 1.328-.849 1.328l-.824-.476c.237-.035.46-.131.648-.28.27-.234.435-.965.831-1.196.47-.321.924-.667 1.36-1.034-.222.653-.627 1.229-1.166 1.658zm3.503-3.14c-.302.604-.573 1.224-.81 1.858-.173.42.386.255.203.72-.183.466-1.396 1.438-1.396 1.438s.944-1.351.862-1.482c-.083-.131-.345-.018-.283-.61.062-.594 1.252-1.725 1.438-1.921l.024-.025c-.015.001-.029.009-.038.021zm3.993-4.177c-.5.266-.4.583-.6 1.262-.2.68-2.069 2.48-2.069 2.48.246-.566.533-1.112.859-1.635.414-.63 1.114-1.645.88-1.941-.235-.297-1.953 1.379-1.953 1.379.77-1.997 1.287-2.069 1.766-2.145.48-.076 1.114-.217 1.562-1.227.373-.732.852-1.404 1.42-1.997.033-.044.071-.083.114-.117l-.113.117c-.304.393-.621 1.497-.804 2.138-.217.707-.565 1.42-1.062 1.686zm4.555 8.162c-.37.714-.962 1.29-1.686 1.642l-1.624.727s1.603-1.693 1.92-1.91c.318-.217.239-.566.277-.952.037-.386.082-.38.506-.638.425-.258.587-.441.962-.648.376-.207.976-.69 1.17-1.89-.479.693-1.14 1.238-1.91 1.576-1.2.476-1.35.728-1.725.804-.376.075-.61 0-.962.055s.69-.831 1.5-1.259c.81-.427 1.78-1.38 1.89-1.886.11-.507.555-1.107.951-1.724.397-.617.19-.82.69-.942.5-.12 1.224-1.213 1.283-2.113 0 0-1.38 1.682-1.759 1.262-.38-.421-.959-.228-1.345.527s-.451 1.445-.669 1.976c-.217.531-.965 1.076-1.451 1.307-.487.231-1.152.569-1.152.569s.945-1.034 1.414-1.469c.397-.297.662-.737.738-1.228.13-.586-.09-1.155.262-1.603.351-.448.69-1.172 1.155-1.117-.365-.266-.855-.284-1.238-.045-.366.232-.796.342-1.228.314.293-.406.545-.84.755-1.293.328-.724.16-.81.756-1.256.534-.483 1.012-1.025 1.424-1.617 0 0 .224.97-.249 1.524-.472.556-1.43 1.538-1.43 1.538s1.824-.927 2.12-1.724c.297-.796.173-1.558.442-2.493.152-.535.116-1.106-.104-1.617 0 0-.176 1.286-.459 1.483-.282.196-1.558.958-1.74 1.513.186-.712.464-1.397.827-2.038.53-.862.665-.896.658-1.848.017-.48-.05-.958-.2-1.414-.434.375-.808.813-1.11 1.3-.393.69-1.004 1.445-1.49 1.67-.486.223-2.169.761-2.796 1.64-.628.88-1.473 2.311-1.89 2.76-.417.448-1.276 1.958-1.859 2.713-.582.755-1.14.786-1.196 1.08-.055.293-.166 1.196-.666 1.665-.5.469-1.175.317-1.875 1.586-.649 1.183-2.21 2.11-2.587 2.235h-.065c-.2 0 1.269-1.587 1.269-1.587l-.345-.044s.759-.631.824-1.035c.066-.403-.059-.324-.645-.058-.586.265-1.59.49-1.651.855-.01.332-.121.653-.318.92-.227.228-.993.859-.993.859l-.824-.469.948-.831c-.133-.405-.004-.85.324-1.12.556-.4.87-.363 1.325-1.056.455-.693 1.541-2.127 1.541-2.127s-1.762.582-1.803.344c0 0 .544-1.003.72-1.448.176-.445.042-.634-.476-.145-.517.49-1.603 2.031-2.113 2.252-.51.22-.866 1.01-1.187 1.541-.32.531-1.396 1.11-1.758 1.11l-1.138-.637.196-.252c.093-.098.2-.182.318-.248.313-.18 2.069-.438 3.03-1.997.963-1.558 2.149-2.845 3.066-3.276.917-.43 1.097-.69 1.724.345.628 1.035 2.414 2.683 2.414 2.683l-.924-1.79c.303.017.594.125.834.31.258.218.6.306.93.239.33-.067.612-.282.764-.583.565-.904 1.193-2.142 1.813-2.68.621-.537 1.98-2.917 2.283-3.313.292-.513.825-.84 1.414-.87.883-.089 2.117-1.082 2.92-2.392.79-1.093 1.6-1.649 2.07-1.128.468.52.655 2.845.779 3.448.124.604 1.076 1.621 1.245 2.318.169.696.196.534.196.534s-.552-1.759-.748-2.528c-.197-.768-.317-.69-.2-1.172 0 0 1.445 1.297 1.769 2.414.324 1.117.896 2.758 1.434 3.448.393.466.87.853 1.407 1.142-.056.33-.132.655-.227.975-.128.276-.314.52-.545.718-.225-.419-.581-.752-1.014-.949-.741-.344-.893-1.158-1.124-1.59 0 0 .08 1.756 1.186 2.328l.083 1.31c-.552.315-1.024.751-1.38 1.276-.472.78-.344 1.704-1.14 2.376-.797.673-1.346.576-1.818 1.038-.472.462-1.28 1.076-1.69 1.8zm5.49.031c-.066.69-.414 1.035-.962 1.38-.434.292-.85.608-1.248.948 0 0 .317-.417.551-.752.192-.37.444-.705.745-.993.417-.345.07-.69.248-1.096.18-.407 1.38-1.463 1.38-1.463s-.649 1.273-.714 1.976zm10.165-3.869c-.438-.137-.864-.312-1.272-.524-.318-.152-.694-.12-.983.083v.797c-.593-.297-1.169-1.904-1.169-1.904-.169.635.559 2.162.559 2.162-.391-.134-.692-.45-.807-.848-.209-.703-.455-1.393-.738-2.07 0 0 0 .58-.03 1.284-.032.703.25.69.447 1.379.197.69-.43 1.617-.43 1.617.104-.397.08-.817-.07-1.2 0 .58-.558 1.442-.951 1.848-.393.407-.593.297-.921.721-.247.289-.551.523-.893.69.072-.207.164-.407.272-.597.238-.455-.051-.614.204-1.141.214-.395.477-.76.782-1.09l-.258 1c.337-.259.644-.553.917-.88.204-.316-.445-2.068-.445-2.068-.287.445-.615.863-.979 1.248-.459.438-.545.69-.735 1.542-.19.851-1.148 1.624-1.148 1.624.389-.788.68-1.62.866-2.48.006-.415.207-.804.541-1.051.342-.36.636-.763.876-1.197-.237.062-.48.098-.724.107-.325-.035-.647-.09-.966-.162-.448-.052-1.6 1.466-1.6 1.466s.39-.814.849-1.552c.458-.738 1.251-.545 1.662-.37.41.177.813 0 1.238-.368.424-.37.658-.37.424.245-.235.613.61 1.338.61 1.338-.314-.55-.32-1.221-.017-1.776.269-.528-.442-2.286-.307-1.531v.034c.05.431-.163.85-.541 1.062 0 0-.17-.438-.345-.807-.176-.369.345-1.724.345-1.724-.14.076-.288.135-.442.176-.479.06-.848.45-.883.931-.134.759-1.51 1.917-2.224 2.535-.714.617-.845.965-.93 1.651-.062.708-.432 1.352-1.011 1.762-.573.345-2.9 2.414-2.9 2.414s1.434-1.765 1.79-2.18c.355-.413 1.275-1.089 1.613-2.389.338-1.3 1.035-1.303 2.018-2.286.982-.983 1.238-2.92 1.238-2.92.353 0 .704-.065 1.034-.194.714-.227 1.238-.345 2.12.476.883.82 1.628 2.673 1.814 3.183.187.51.866.807 1.97.72 1.103-.086 1.475.614 1.475.614l-.945.6z"/>
                        <path fill="#000" fill-rule="nonzero" d="M22.693 7.848l.114-.117c-.043.034-.081.073-.114.117zM16.855 15.841l-.024.025c.005-.011.014-.02.024-.025z"/>
                        <path fill="#FFF" fill-rule="nonzero" d="M15.238 44.32V31.435l-.9-6.606-2.269 1.258 2.414 18.742-.059.041c-.045.035-.064.094-.046.149.018.054.068.091.125.092.03 0 .057-.01.08-.027l.738-.535c.029-.02.048-.052.053-.087.005-.035-.004-.07-.026-.099-.028-.03-.069-.046-.11-.041zM20.4 30.421L19.886 28.159 17.614 29.286 17.666 29.524 19.986 39.628 19.972 31.083 20.062 30.728zM17.431 46.783L19.503 45.731 17.51 37.883zM10.983 30.572L10.128 35.938 11.469 35.207zM9.234 41.748L11.562 40.334 9.538 39.138zM2.231 23.541v11.4l2.307-1.379s.424-8.276-.038-8.62l-2.269-1.4zM7.793 21.434L5.517 22.58c.593 1.005.97 2.124 1.104 3.283.124 1.662.145 9.248 0 9.904-.164.526-.421 1.019-.759 1.455 0 0 1.841-1.035 1.931-1.552l1.09-6.293s.117-4.652-.131-5.638c-.175-.82-.5-1.601-.959-2.304zM26.628 26.903L26.517 30.728 28.71 35.207 28.6 28.21M26.631 39.628L26.517 44.693 28.6 45.731M31.624 24.559L32.252 25.855 32.579 26.086 32.717 26.638 35.907 32.683 35.907 39.834 37.548 40.831 37.286 32.352 33.383 25.531M38.541 19.862L37.766 24.128 39.734 27.807 40.555 20.966"/>
                    </g>
                </g>
            </g>
        </g>
    </g>
</svg>
