<svg xmlns="http://www.w3.org/2000/svg" width="26" height="26" viewBox="0 0 26 26">
    <g fill="none" fill-rule="evenodd">
        <g>
            <g>
                <g transform="translate(-572.000000, -503.000000) translate(120.000000, 496.000000) translate(432.000000, 0.000000)">
                    <path stroke="#FFF" d="M35.72 8.088c.217-.166.43.118.584.147.27.052.5-.039.63 0 .562.168.892.37 1.032.37.326 0 .326-.517.568-.6.104-.036.403.156.96.329.316.098 1.018.098 1.198.27-.09.151-.324.386-.7.704-.441.21-.717.39-.828.54-.167.226-.043.599-.16.792-.116.194-.607.305-.648.54-.042.234.4.666.4.856 0 .19-.577.29-.489.69.018.078.049.42-.166.986-.071.188-.337.365-.417.613-.051.16.077.336 0 .573-.091.283-.567.532-.632 1.238-.025.282-.117.721-.408 1.226-.085.148.2.363.132.585-.072.232-.34.588-.472 1.001-.09.281.008.627-.211.834-.128.121-.527.393-.664.723-.066.158-.372.303-.421.647-.03.21.168.585.168.84-.05.054-.426.111-.74.406-.132.123-.099.474-.365.748-.21.217-.658.98-1.283 1.51-.256.217-.614.122-.843.34-.11.104.08.292 0 .622-.032.133-.17.232-.374.482-.204.25-1.337.52-1.807.867-.313.23-.522.54-.629.927-.365.328-.66.751-.887 1.269-.179.41-.7.903-.93 1.75-.06.22.131.547.131.843-.132.127-.28.127-.462.244-.256-.244-.7-.4-1.07-.4-.245 0 .253-.434-.37-.434.024-.108.278-.094.264-.181-.013-.086-.095-.25-.265-.376-.1-.075-.321-.08-.396-.188-.075-.109.019-.31.1-.39.168-.167.47-.068.47-.169 0-.15-.19-.32-.57-.507v-.192c0-.056.264-.164.264-.239 0-.112-.344-.336-.406-.6-.028-.12.019-.322.142-.607.363-.529.618-.835.766-.916.076-.042.403-.018.586-.072.068-.02.046-.196.143-.249.07-.038.228.089.342 0 .05-.039.48-.283.462-.615-.004-.078.155-.226 0-.378-.062-.061-.342-.061-.462-.168-.12-.108.173-.242 0-.663-.043-.105-.513-.09-.588-.169-.128-.133.103-.261-.113-.4-.074-.048-.165-.256 0-.456.103-.123.41-.178.565-.388.037-.05-.082-.152 0-.257.025-.032.127-.077.305-.135-.124-.09-.18-.152-.17-.187.075-.23.335-.372.331-.457-.012-.28-.204-.386-.161-.552.035-.135.386-.244.49-.432.097-.174-.092-.433.096-.641.048-.053.199-.068.406-.156.11-.047.153-.149.41-.248.272-.106 1.143-.16 1.206-.38.064-.22-.81-.362-.924-.603-.046-.1.315-.22.4-.384.023-.043.21-.15.177-.232-.02-.048-.282-.048-.282-.12 0-.025.427-.11.63-.298.067-.063-.262-.07-.172-.214.048-.077.208-.225.482-.445.597.04.963.018 1.1-.068.203-.128.006-.481.105-.69.098-.21.536.065.665-.272.015-.04.368-.07.377-.133.02-.12.366-.785.264-1.174-.062-.237-.545-.237-.641-.45-.026-.057.42-.135.542-.39.08-.166.393-.505.554-.988.059-.175.095-.48.109-.916-.142-.073-.178-.176-.109-.31.043-.083.071-.302.289-.612.053-.075.367-.175.5-.32.088-.096.241-.231.095-.345-.145-.113-.517-.162-.595-.311-.078-.15.095-.327.206-.432.111-.105.4-.174.65-.242.082-.023-.134-.249 0-.43.027-.037.427-.033.568-.223.04-.055-.162-.037 0-.314.062-.106.538-.167.675-.277.223-.18.138-.401.29-.517z" transform="translate(32.846154, 20.000000) rotate(-6.000000) translate(-32.846154, -20.000000)"/>
                </g>
            </g>
        </g>
    </g>
</svg>
