<svg xmlns="http://www.w3.org/2000/svg" width="26" height="26" viewBox="0 0 26 26">
    <g fill="none" fill-rule="evenodd">
        <g>
            <g>
                <g transform="translate(-284.000000, -503.000000) translate(120.000000, 496.000000) translate(144.000000, 0.000000)">
                    <path stroke="#FFF" d="M34.978 8c-.16 0-.401.73-1.008 1.242-.29.245-.846.245-1.168.437-.215.128-.846 1.266-1.893 3.414l-2.67 3.95c-2.505 4.69-3.872 7.232-4.1 7.625-.34.59-.848.478-1.273 1.455-.218.5-.585 1.42-.772 2.87-.057.438-.18 1.256 0 1.5.178.242.862.458 1.527.458.279 0 .821-1.053 1.968-1.716.676-.392 1.497-.8 2.65-.8.218 0 .128.325.36.557.238.24.8.39 1.188.53.564.204 2.215.325 2.215.163s-.271-.53 0-.693c.272-.163 1.374.243 1.554.693.072.177-.187.2-.2.573-.01.258.048.911.2 1.167.074.122.782-.145 1.89 0 .435.056 1.05.575 1.428.575.175 0 .164-.564.8-1.049.28-.213 1.06-.225 1.391-.459.137-.096-.06-.61.209-.97.166-.221.822-.221.97-.53.07-.143.357-.904.33-1.777-.012-.38-.164-.681-.33-1.092-.073-.182.476-1.22.795-2.289.109-.362.18-.882.213-1.56-.134-.45-.134-.833 0-1.148.203-.473.777-.967.777-1.267 0-.3-.777-.562-.777-1.027 0-.464.684-.355.972-.748.114-.155.256-.76.685-1.417.113-.172.568-.262.82-.566.192-.23.425-.639.425-.955 0-.21-.142-.356-.425-.437-.603.009-1.014-.04-1.232-.145-.327-.157-.327-.565-.61-.743-.285-.178-.906.4-1.11 0-.073-.143.098-.477 0-.728-.083-.215-.083-.292-.533-.627-.45-.334-2.141.335-2.57 0-.172-.135.204-.517.24-.978.025-.302.025-.566-.24-1.028-.099-.174-.978-.535-1.403-.956-.168-.166.054-.812-.147-.786-1.146.15-.977-.718-1.146-.718z"/>
                </g>
            </g>
        </g>
    </g>
</svg>
