<svg xmlns="http://www.w3.org/2000/svg" width="26" height="26" viewBox="0 0 26 26">
    <g fill="none" fill-rule="evenodd">
        <g>
            <g>
                <g transform="translate(-140.000000, -503.000000) translate(120.000000, 496.000000)">
                    <path stroke="#FFF" d="M20.03 21.25c.202-.102.44-.46.6-.76.106-.2.208-.512.306-.937l.537-1.202 1.789-3.151c.122-.882.383-1.467.785-1.753.169-.12.395-.047.616-.136.57-.23 1.266-.568 2.037-.884 1.07-.438 1.538-.729 2.108-.93.57-.202 3.255-.877 3.527-1.07.273-.193-.103-.353 0-.73.104-.377 1.204-1.472 1.5-1.68.295-.207 2.171-1.118 2.45-1.008.277.111.937.573 1.08.877.142.304.142.733.437 1.15.296.417 1.935 1.797 2.225 1.847.291.05.441-.456.624-.456.182 0 .741.807 1.156.92.414.115 2.066-.048 2.247.15.181.197.011.802.089 1.196.052.263.172.628.362 1.094.922.034 1.418.132 1.49.294.054.12-.376.367-1.123.924-.254.19-2.65 2.569-2.851 3.519-.2.95-.286 1.792-.214 2.185.047.261.186.635.414 1.122-.05.49-.05.91 0 1.265.05.354.245.875.584 1.564.275 1.097.377 1.7.306 1.81-.107.163-.833.306-.89.534-.056.229.664.553.584.705-.081.15-1.393 1.057-1.576 1.326-.239.354-.103 1.046-.128 1.504-.01.174-.149.342-.185.403-.315.543-.205 1.035-.265 1.074-.21.134-1.35-.411-1.818-.618-.923-.408-1.34-.765-1.468-.716-.29.11-.263.419-.337.627-.124.349-.133.707-.262.707-.104 0-.767-.206-1.991-.618-.691-.253-1.111-.438-1.26-.555-.345-.272-.358-.634-.502-.669-.355-.085-1.448.597-1.586.508-.138-.09-1.003-.796-1.064-.962-.061-.166.166-.783 0-.895-.165-.112-1.324.534-1.467.21-.142-.324-.722-1.885-1.164-2.03-.44-.146-2.944.431-3.07.307-.125-.125-.12-.134-.195-.308-.075-.173-.283-1.015-.283-1.173 0-.159.479-.464.479-.906 0-.295-.205-.541-.616-.738-1.126-.867-1.766-1.383-1.92-1.55-.232-.249.199-.443-.151-.68-.35-.237-.777.012-1.04-.126-.264-.138-1.107-.477-.905-.58z"/>
                </g>
            </g>
        </g>
    </g>
</svg>
