<svg xmlns="http://www.w3.org/2000/svg" width="26" height="26" viewBox="0 0 26 26">
    <g fill="none" fill-rule="evenodd">
        <g>
            <g>
                <g transform="translate(-428.000000, -502.000000) translate(120.000000, 496.000000) translate(288.000000, 0.000000)">
                    <path stroke="#FFF" d="M27.394 8.537c.154-.195 1.17.295 1.43.252.262-.044.227-.252.44-.56.056-.08.581-.08.991-.338.361-.227.887-.732 1.128-.878.104-.063.315.13.648.148.181.01.33-.148.653-.148.092 0 .287.418.707.587.435.175 1.098 0 1.386 0 .164 0 .248.229.474.291.307.085.748.01.83 0 .143-.016 0-.291 0-.44.165-.129.366-.137.705 0 .173.069.436-.07.636 0 .098.033-.107.307-.152.935-.017.23.232.637.452.883.087.098.423-.04 1.015 0 .404.027 1.425.084 1.569.246.095.108.135.257.121.446.07.075.07.18 0 .317-.045.089-.37.014-.497.175-.068.085-.155.3 0 .483.065.078.292.041.497.182.12.083.342.29.342.426 0 .067-.517.136-1.177.478-.24.124-.458.335-.663.562-.2.222-.58 1.504-.58 2.625 0 .43-.89.78-.927 1.253-.013.166.038.502.3.833.106.134.29.103.458.354.07.104-.075.364 0 .578.046.13.156.144.357.35.134.137.015.527-.357 1.172-.165-.054-.318-.054-.458 0-.087.033-.136.234-.3.342-.102.067-.291-.115-.426.113-.06.1-.484.434-.59 1.12-.053.347-.08.738.165 1.328 0 .29-.244.317-.164.545.08.228.38 0 .589.666-.532.154-.673.392-.425.713.167.073.309.22.425.44.065.124-.083.333 0 .567.063.181.126.271.426.442.3.17.758.37 1.115.17 0 1.154.12 1.45 0 3.054-.375.203-.805.424-.815.8-.007.25.463.753.294.946-.054.062-.268-.438-.594-.489-.15-.023-.526-.5-.851-.457-.182.024-.323.627-.648.627-.163 0-.004-.539-.158-.87-.081-.176-.199-.401-.368-.557.287-.583.526-.498.526-.92-.274-.927-.553-2.013-1.146-3.016-.112-.188-.344-.434-.695-.737-1.589-.829-2.667-1.47-3.235-1.924-.852-.68-1.64-1.806-1.796-2.092-.156-.286.481-.356.213-.811-.268-.455-1.22-2.767-1.363-3.426-.07-.323-.946-.72-1.596-1.277-.232-.2-.305-.077-.305-.327 0-.101.135-.272.135-.499 0-.151.206-.232.616-.242-.065-.214-.162-.401-.292-.562 0-.266.194-.532.292-.832.05-.15.407-.368.5-.562.064-.135-.1-.49 0-.73.05-.12.097-.367.274-.577.088-.103.392.001.376-.262 0-.281.27-1.1-.248-1.382-.517-.282-.325-.45-.259-.534z"/>
                </g>
            </g>
        </g>
    </g>
</svg>
